<?xml version="1.0" encoding="UTF-8" standalone="no"?>
<!-- Created with Inkscape (http://www.inkscape.org/) -->

<svg
   xmlns:dc="http://purl.org/dc/elements/1.1/"
   xmlns:cc="http://creativecommons.org/ns#"
   xmlns:rdf="http://www.w3.org/1999/02/22-rdf-syntax-ns#"
   xmlns:svg="http://www.w3.org/2000/svg"
   xmlns="http://www.w3.org/2000/svg"
   xmlns:sodipodi="http://sodipodi.sourceforge.net/DTD/sodipodi-0.dtd"
   xmlns:inkscape="http://www.inkscape.org/namespaces/inkscape"
   width="139.6973"
   height="140.59608"
   viewBox="0 0 139.6973 140.59609"
   id="svg2"
   version="1.1"
   inkscape:version="0.91 r13725"
   sodipodi:docname="drawing.svg">
  <defs
     id="defs4" />
  <sodipodi:namedview
     id="base"
     pagecolor="#ffffff"
     bordercolor="#666666"
     borderopacity="1.0"
     inkscape:pageopacity="0.0"
     inkscape:pageshadow="2"
     inkscape:zoom="0.67243722"
     inkscape:cx="-10.827865"
     inkscape:cy="-362.57408"
     inkscape:document-units="px"
     inkscape:current-layer="layer1"
     showgrid="false"
     inkscape:window-width="1920"
     inkscape:window-height="1017"
     inkscape:window-x="-8"
     inkscape:window-y="-8"
     inkscape:window-maximized="1"
     units="px"
     fit-margin-top="0"
     fit-margin-left="0"
     fit-margin-right="0"
     fit-margin-bottom="0">
    <inkscape:grid
       type="xygrid"
       id="grid3364"
       originx="0.9595567"
       originy="-911.80761" />
  </sodipodi:namedview>
  <metadata
     id="metadata7">
    <rdf:RDF>
      <cc:Work
         rdf:about="">
        <dc:format>image/svg+xml</dc:format>
        <dc:type
           rdf:resource="http://purl.org/dc/dcmitype/StillImage" />
        <dc:title></dc:title>
      </cc:Work>
    </rdf:RDF>
  </metadata>
  <g
     inkscape:label="Layer 1"
     inkscape:groupmode="layer"
     id="layer1"
     transform="translate(0.95955667,0.04149099)">
    <path
       style="fill:#f6981f"
       d="M 52.259336,138.6333 C 27.587486,132.661 7.3764561,112.7658 0.77153607,87.950201 c -2.34656997,-8.8164 -2.30012997,-26.2022 0.0945,-35.396 C 7.1724161,28.342401 28.323206,7.6118407 52.705546,1.7446405 c 23.40472,-5.63195 49.938704,2.3324302 66.551914,19.9760805 14.63404,15.54178 20.37214,30.95198 19.36924,52.01818 -0.7013,14.7327 -3.5411,23.385104 -11.7835,35.902299 -15.78773,23.9757 -46.303794,35.8379 -74.583904,28.9921 z m 35.44625,-12.5766 c 15.403084,-5.0532 30.409624,-19.5593 36.246214,-35.037599 5.4371,-14.4186 4.6744,-32.0795 -1.9941,-46.1756 -3.90486,-8.2541 -15.09029,-20.65037 -22.609554,-25.05695 C 81.906576,9.5651207 58.037696,9.1540507 40.368536,18.770821 6.2877561,37.319901 -0.17446393,84.219401 27.538506,111.8847 c 7.52925,7.5162 19.49289,14.2127 28.91708,16.1859 7.86132,1.646 23.08418,0.6649 31.25,-2.0139 z m -36.20977,-22.6808 c -8.71482,-4.806295 -9.36921,-6.797595 -9.81367,-29.863499 -0.36917,-19.1584 -0.57477,-20.7236 -2.79844,-21.3051 -4.78153,-1.2504 -0.84825,-2.8434 7.02065,-2.8434 7.77079,0 10.70704,1.5139 5.55123,2.8622 -2.34289,0.6126 -2.49956,1.7019 -2.49303,17.3332 0.008,19.9335 1.21367,25.328804 6.23916,27.927604 4.21524,2.1798 14.81546,2.4788 19.07492,0.538 5.8352,-2.6587 6.43991,-5.279204 7.14255,-30.952504 0.60348,-22.0501 0.87388,-24.3215 3.08781,-25.9375 2.80989,-2.0509 17.560144,-2.5218 16.323604,-0.521 -0.4249,0.6875 -1.804164,1.25 -3.065054,1.25 -1.26087,0 -2.63392,0.8897 -3.05122,1.9772 -0.41731,1.0875 -0.76084,12.4781 -0.76341,25.3125 -0.005,25.640304 -0.74067,28.614904 -8.30041,33.568199 -5.3084,3.4782 -28.23778,3.9173 -34.15469,0.6541 z"
       id="path3360"
       inkscape:connector-curvature="0" />
  </g>
</svg>
